# xmcd
#
# Track frame offsets: 
#        150
#        11755
#        27046
#        52411
#        70647
#        79887
#        93832
#        115228
#        133778
#        146687
#        150852
#        159150
#        183360
#        195087
#        206599
#        222730
#        237139
#        254048
#        266151
#        285465
#        302297
#        324329
#        340421
#        360712
#
# Disc length: 4875 seconds
#
# Revision: 0
# Processed by: cddbd v1.5.1PL0 Copyright (c) Steve Scherf et al.
# Submitted via: ExactAudioCopy v0.95a5
#
DISCID=58130918
DTITLE=Умка и Броневичок - Заначка and Лондон
DYEAR=2001
DGENRE=Blues
TTITLE0=Заначка - 01 - Метроном
TTITLE1=Заначка - 02 - Поздно пить таблетки
TTITLE2=Заначка - 03 - С горы упасть
TTITLE3=Заначка - 04 - Дерево без корней
TTITLE4=Заначка - 05 - Пингвины и тюлени
TTITLE5=Заначка - 06 - Никому не принадлежишь
TTITLE6=Заначка - 07 - Заначка
TTITLE7=Заначка - 08 - Уважаемые пассажиры
TTITLE8=Заначка - 09 - Рок-н-ролл
TTITLE9=Заначка - 10 - Небесная дверь
TTITLE10=Заначка - 11 - Иногда не здесь
TTITLE11=Лондон - 01 - Пой как птица
TTITLE12=Лондон - 02 - Дворник-аристократ
TTITLE13=Лондон - 03 - Он живет совсем один
TTITLE14=Лондон - 04 - Трепеща и одиноко
TTITLE15=Лондон - 05 - Секси Дуня Кулакова - 2
TTITLE16=Лондон - 06 - В конце концов
TTITLE17=Лондон - 07 - Калифорния
TTITLE18=Лондон - 08 - Так далеко
TTITLE19=Лондон - 09 - Керуак (трепло)
TTITLE20=Лондон - 10 - По любви
TTITLE21=Лондон - 11 - Братишка Фрэнк
TTITLE22=Лондон - 12 - Я была с моим народом
TTITLE23=Лондон - 13 - Девочка с бородой
EXTD=
EXTT0=
EXTT1=
EXTT2=
EXTT3=
EXTT4=
EXTT5=
EXTT6=
EXTT7=
EXTT8=
EXTT9=
EXTT10=
EXTT11=
EXTT12=
EXTT13=
EXTT14=
EXTT15=
EXTT16=
EXTT17=
EXTT18=
EXTT19=
EXTT20=
EXTT21=
EXTT22=
EXTT23=
PLAYORDER=
